<svg id="Layer_1" enable-background="new 0 0 256 256" height="512" viewBox="0 0 256 256" width="512" xmlns="http://www.w3.org/2000/svg"><g><g><path d="m243.15 191.318h-230.3c-4.888 0-8.85-3.962-8.85-8.85v-141.796c0-4.888 3.962-8.85 8.85-8.85h230.3c4.888 0 8.85 3.962 8.85 8.85v141.796c0 4.888-3.962 8.85-8.85 8.85z" fill="#f4efed"/></g><g><path d="m243.15 31.822h-10c4.888 0 8.85 3.962 8.85 8.85v141.796c0 4.888-3.962 8.85-8.85 8.85h10c4.888 0 8.85-3.962 8.85-8.85v-141.796c0-4.888-3.962-8.85-8.85-8.85z" fill="#d6d1cf"/></g><g><path d="m12.85 191.318h10c-4.888 0-8.85-3.962-8.85-8.85v-141.796c0-4.888 3.962-8.85 8.85-8.85h-10c-4.888 0-8.85 3.962-8.85 8.85v141.796c0 4.888 3.962 8.85 8.85 8.85z" fill="#fff"/></g><g><path d="m208.901 224.178h-161.802v-11.854c0-4.888 3.962-8.85 8.85-8.85h144.102c4.888 0 8.85 3.962 8.85 8.85z" fill="#526faa"/></g><g><path d="m200.051 203.474h-10c4.888 0 8.85 3.962 8.85 8.85v11.855h10v-11.855c0-4.888-3.962-8.85-8.85-8.85z" fill="#34518c"/></g><g><path d="m55.949 203.474h10c-4.888 0-8.85 3.962-8.85 8.85v11.855h-10v-11.855c0-4.888 3.962-8.85 8.85-8.85z" fill="#708dc8"/></g><g><path d="m80.503 191.318h94.993v12.156h-94.993z" fill="#34518c"/></g><g><path d="m12 69.026c-1.104 0-2-.896-2-2v-12c0-1.104.896-2 2-2s2 .896 2 2v12c0 1.104-.896 2-2 2z" fill="#690589"/></g><g><path d="m208.901 226.178h-161.802c-1.104 0-2-.896-2-2v-11.854c0-5.983 4.867-10.85 10.851-10.85h144.102c5.983 0 10.851 4.867 10.851 10.85v11.854c-.002 1.105-.897 2-2.002 2zm-159.802-4h157.803v-9.854c0-3.777-3.073-6.85-6.851-6.85h-144.102c-3.777 0-6.851 3.073-6.851 6.85v9.854z" fill="#690589"/></g><g><path d="m175.497 205.474h-94.994c-1.104 0-2-.896-2-2v-12.155c0-1.104.896-2 2-2h94.994c1.104 0 2 .896 2 2v12.155c0 1.104-.895 2-2 2zm-92.994-4h90.994v-8.155h-90.994z" fill="#690589"/></g><g><path d="m243.15 193.318h-230.3c-5.982 0-10.85-4.867-10.85-10.85v-141.796c0-5.983 4.867-10.85 10.85-10.85h230.3c5.982 0 10.85 4.867 10.85 10.85v141.796c0 5.983-4.867 10.85-10.85 10.85zm-230.3-159.496c-3.777 0-6.85 3.073-6.85 6.85v141.796c0 3.777 3.072 6.85 6.85 6.85h230.3c3.777 0 6.85-3.073 6.85-6.85v-141.796c0-3.777-3.072-6.85-6.85-6.85z" fill="#690589"/></g><g><path d="m60.347 123.572h14.513v14.513h-14.513z" fill="#fcc24c"/></g><g><path d="m181.14 123.572h14.513v14.513h-14.513z" fill="#fcc24c"/></g><g><path d="m128 73.617-31.154 33.499 11.9 54.203h38.508l11.899-54.203z" fill="#fcc24c"/></g><g><path d="m147.254 163.319h-38.508c-.939 0-1.752-.654-1.953-1.571l-11.899-54.203c-.141-.641.042-1.31.488-1.791l31.153-33.5c.758-.814 2.172-.814 2.93 0l31.153 33.5c.446.48.629 1.15.488 1.791l-11.899 54.203c-.201.918-1.014 1.571-1.953 1.571zm-36.9-4h35.291l11.33-51.608-28.975-31.157-28.976 31.157z" fill="#690589"/></g><g><circle cx="51.164" cy="63.176" fill="#526faa" r="10.441"/></g><g><circle cx="204.836" cy="63.176" fill="#526faa" r="10.441"/></g><g><path d="m51.164 75.617c-6.859 0-12.44-5.581-12.44-12.44s5.581-12.441 12.44-12.441 12.44 5.581 12.44 12.441-5.581 12.44-12.44 12.44zm0-20.882c-4.654 0-8.44 3.787-8.44 8.441s3.786 8.44 8.44 8.44 8.44-3.786 8.44-8.44-3.786-8.441-8.44-8.441z" fill="#690589"/></g><g><path d="m204.836 75.617c-6.859 0-12.44-5.581-12.44-12.44s5.581-12.441 12.44-12.441 12.44 5.581 12.44 12.441-5.581 12.44-12.44 12.44zm0-20.882c-4.654 0-8.44 3.787-8.44 8.441s3.786 8.44 8.44 8.44 8.44-3.786 8.44-8.44-3.786-8.441-8.44-8.441z" fill="#690589"/></g><g><ellipse cx="128" cy="115.421" fill="#526faa" rx="7.393" ry="7.393" transform="matrix(.16 -.987 .987 .16 -6.434 223.279)"/></g><g><path d="m128 124.813c-5.18 0-9.394-4.214-9.394-9.393s4.214-9.393 9.394-9.393 9.394 4.214 9.394 9.393-4.214 9.393-9.394 9.393zm0-14.786c-2.974 0-5.394 2.419-5.394 5.393s2.42 5.393 5.394 5.393 5.394-2.419 5.394-5.393-2.42-5.393-5.394-5.393z" fill="#690589"/></g><g><path d="m188.396 125.572c-1.104 0-2-.896-2-2 0-32.2-26.196-58.396-58.396-58.396s-58.396 26.196-58.396 58.396c0 1.104-.896 2-2 2s-2-.896-2-2c0-34.405 27.991-62.396 62.396-62.396s62.396 27.991 62.396 62.396c0 1.105-.895 2-2 2z" fill="#690589"/></g><g><path d="m194.396 65.176h-132.792c-1.104 0-2-.896-2-2s.896-2 2-2h132.791c1.104 0 2 .896 2 2s-.895 2-1.999 2z" fill="#690589"/></g><g><path d="m74.86 140.086h-14.513c-1.104 0-2-.896-2-2v-14.514c0-1.104.896-2 2-2h14.513c1.104 0 2 .896 2 2v14.514c0 1.104-.895 2-2 2zm-12.513-4h10.513v-10.514h-10.513z" fill="#690589"/></g><g><path d="m195.653 140.086h-14.513c-1.104 0-2-.896-2-2v-14.514c0-1.104.896-2 2-2h14.514c1.104 0 2 .896 2 2v14.514c-.001 1.104-.896 2-2.001 2zm-12.513-4h10.514v-10.514h-10.514z" fill="#690589"/></g><g><path d="m128 110.027c-1.104 0-2-.896-2-2v-34.41c0-1.104.896-2 2-2s2 .896 2 2v34.411c0 1.104-.896 1.999-2 1.999z" fill="#690589"/></g><g><path d="m149.986 174.407h-43.971c-3.614 0-6.544-2.93-6.544-6.544 0-3.614 2.93-6.544 6.544-6.544h43.971c3.614 0 6.544 2.93 6.544 6.544-.001 3.614-2.93 6.544-6.544 6.544z" fill="#fcc24c"/></g><g><path d="m149.985 176.407h-43.971c-4.711 0-8.544-3.833-8.544-8.544s3.833-8.543 8.544-8.543h43.971c4.711 0 8.544 3.833 8.544 8.543s-3.833 8.544-8.544 8.544zm-43.97-13.088c-2.506 0-4.544 2.038-4.544 4.543s2.038 4.544 4.544 4.544h43.971c2.506 0 4.544-2.039 4.544-4.544s-2.038-4.543-4.544-4.543z" fill="#690589"/></g></g></svg>