<svg id="Layer_1" enable-background="new 0 0 256 256" height="512" viewBox="0 0 256 256" width="512" xmlns="http://www.w3.org/2000/svg"><g><path d="m32.035 195.39c-7.535 0-13.665-6.13-13.665-13.665v-123.777c0-7.535 6.13-13.665 13.665-13.665h191.931c7.535 0 13.665 6.13 13.665 13.665v123.776c0 7.535-6.13 13.665-13.665 13.665h-191.931z" fill="#63bce7"/><path d="m229.221 169.725c0 2.891-2.365 5.256-5.256 5.256h-191.93c-2.891 0-5.256-2.365-5.256-5.256v-111.777c0-2.891 2.365-5.256 5.256-5.256h191.931c2.891 0 5.256 2.365 5.256 5.256v111.777z" fill="#f46275"/><g><path d="m44.838 169.725v-111.777c0-2.891 2.365-5.256 5.256-5.256h-18.059c-2.891 0-5.256 2.365-5.256 5.256v111.777c0 2.891 2.365 5.256 5.256 5.256h18.059c-2.891-.001-5.256-2.366-5.256-5.256z" fill="#f43075"/></g><g><path d="m211.162 169.725v-111.777c0-2.891-2.365-5.256-5.256-5.256h18.059c2.891 0 5.256 2.365 5.256 5.256v111.777c0 2.891-2.365 5.256-5.256 5.256h-18.059c2.891-.001 5.256-2.366 5.256-5.256z" fill="#f48875"/></g><path d="m96.752 195.39h62.496v19.017h-62.496z" fill="#f8af23"/><g><path d="m96.752 195.39h18.059v19.017h-18.059z" fill="#f87023"/></g><g><path d="m141.19 195.39h18.059v19.017h-18.059z" fill="#f8d323"/></g><circle cx="128" cy="185.185" fill="#f8af23" r="4.5"/><path d="m178.687 229.857h-101.375v-10.45c0-2.761 2.239-5 5-5h91.375c2.761 0 5 2.239 5 5z" fill="#9e9e9e"/><g><path d="m100.371 214.407h-18.059c-2.761 0-5 2.239-5 5v10.45h18.059v-10.45c0-2.761 2.239-5 5-5z" fill="#707070"/></g><g><path d="m155.629 214.407h18.059c2.761 0 5 2.239 5 5v10.45h-18.059v-10.45c0-2.761-2.239-5-5-5z" fill="#cecece"/></g><g><path d="m198.613 142.552h-141.226c-4.95 0-9-4.05-9-9v-109.955c0-4.95 4.05-9 9-9h141.225c4.95 0 9 4.05 9 9v109.955c.001 4.95-4.049 9-8.999 9z" fill="#63bce7"/><g><path d="m207.613 23.593c0-4.948-4.048-8.996-8.996-8.996h-141.233c-4.948 0-8.996 4.048-8.996 8.996v20.689h159.226v-20.689z" fill="#f46275"/></g><g><g fill="#f8af23"><circle cx="67.074" cy="29.44" r="6.208"/><circle cx="86.101" cy="29.44" r="6.208"/><circle cx="105.128" cy="29.44" r="6.208"/></g><path d="m192.93 32.126h-34.203c-1.212 0-2.203-.992-2.203-2.203v-1.028c0-1.212.992-2.203 2.203-2.203h34.203c1.212 0 2.203.992 2.203 2.203v1.028c.001 1.212-.991 2.203-2.203 2.203z" fill="#9e9e9e"/></g></g><path d="m61.933 52.692h132.134v68.558h-132.134z" fill="#f8af23"/><g fill="#63bce7"><path d="m103.125 99.045-10.506-11.33c-.412-.444-.413-1.13-.003-1.576l10.509-11.434c.22-.239.53-.376.855-.376h8.99c1.012 0 1.54 1.203.855 1.948l-9.062 9.861c-.41.446-.408 1.132.003 1.576l9.039 9.75c.689.744.162 1.952-.852 1.952h-8.977c-.323.001-.631-.134-.851-.371z"/><path d="m138.09 63.372-11.147 47.538c-.124.524-.592.895-1.131.895h-6.98c-.75 0-1.303-.7-1.131-1.429l11.15-47.538c.124-.524.592-.895 1.131-.895h6.978c.749-.001 1.302.699 1.13 1.429z"/><path d="m142.821 74.33h8.992c.325 0 .635.136.855.376l10.507 11.434c.41.446.408 1.132-.003 1.576l-10.504 11.33c-.22.237-.529.372-.852.372h-8.979c-1.014 0-1.542-1.208-.852-1.952l9.041-9.75c.412-.444.413-1.13.003-1.576l-9.064-9.861c-.684-.746-.156-1.949.856-1.949z"/></g><g fill="#3f3679"><path d="m32.034 196.89h63.218v16.018h-12.94c-3.584 0-6.5 2.916-6.5 6.5v8.95h-48.112c-.828 0-1.5.672-1.5 1.5s.672 1.5 1.5 1.5h49.612 101.375 49.613c.828 0 1.5-.672 1.5-1.5s-.672-1.5-1.5-1.5h-48.112v-8.95c0-3.584-2.916-6.5-6.5-6.5h-12.939v-16.018h63.218c8.361 0 15.164-6.803 15.164-15.165v-123.777c0-8.362-6.803-15.165-15.164-15.165h-14.854v-19.186-.003c0-5.788-4.709-10.497-10.496-10.497h-.004-141.225-.004c-5.787 0-10.496 4.709-10.496 10.497v.003 19.187h-14.854c-8.361 0-15.164 6.803-15.164 15.165v123.776c0 8.362 6.803 15.165 15.164 15.165zm145.154 22.517v8.95h-98.376v-8.95c0-1.93 1.57-3.5 3.5-3.5h14.439 62.496 14.439c1.931 0 3.502 1.571 3.502 3.5zm-19.44-6.5h-59.496v-16.017h59.496zm-107.86-167.125h156.225v87.77c0 4.136-3.364 7.5-7.5 7.5h-141.225c-4.136 0-7.5-3.364-7.5-7.5zm7.5 98.27h141.225c5.79 0 10.5-4.71 10.5-10.5v-79.36h14.854c2.07 0 3.755 1.685 3.755 3.756v111.776c0 2.071-1.685 3.756-3.755 3.756h-191.933c-2.07 0-3.755-1.685-3.755-3.756v-111.776c0-2.071 1.685-3.756 3.755-3.756h14.854v79.359c0 5.791 4.71 10.501 10.5 10.501zm141.224-127.955c4.136 0 7.5 3.364 7.5 7.5v19.186h-156.224v-19.186c0-4.136 3.364-7.5 7.5-7.5zm-178.742 41.851c0-6.708 5.457-12.165 12.164-12.165h14.854v5.409h-14.854c-3.725 0-6.755 3.03-6.755 6.756v111.776c0 3.726 3.03 6.756 6.755 6.756h191.932c3.725 0 6.755-3.03 6.755-6.756v-111.776c0-3.726-3.03-6.756-6.755-6.756h-14.854v-5.409h14.854c6.707 0 12.164 5.457 12.164 12.165v123.776c0 6.708-5.457 12.165-12.164 12.165h-64.718-62.496-64.718c-6.707 0-12.164-5.457-12.164-12.165z"/><path d="m128 191.185c3.309 0 6-2.691 6-6s-2.691-6-6-6-6 2.691-6 6 2.691 6 6 6zm0-9c1.654 0 3 1.346 3 3s-1.346 3-3 3-3-1.346-3-3 1.346-3 3-3z"/><path d="m27.7 239.903h-18.172c-.828 0-1.5.672-1.5 1.5s.672 1.5 1.5 1.5h18.172c.828 0 1.5-.672 1.5-1.5s-.672-1.5-1.5-1.5z"/><path d="m246.472 239.903h-18.172c-.828 0-1.5.672-1.5 1.5s.672 1.5 1.5 1.5h18.172c.828 0 1.5-.672 1.5-1.5s-.672-1.5-1.5-1.5z"/><path d="m213.788 239.903h-171.576c-.828 0-1.5.672-1.5 1.5s.672 1.5 1.5 1.5h171.576c.828 0 1.5-.672 1.5-1.5s-.672-1.5-1.5-1.5z"/><path d="m9.528 231.357h7.803c.828 0 1.5-.672 1.5-1.5s-.672-1.5-1.5-1.5h-7.803c-.828 0-1.5.672-1.5 1.5s.672 1.5 1.5 1.5z"/><path d="m237.169 229.857c0 .828.672 1.5 1.5 1.5h7.803c.828 0 1.5-.672 1.5-1.5s-.672-1.5-1.5-1.5h-7.803c-.828 0-1.5.672-1.5 1.5z"/><path d="m67.074 37.147c4.25 0 7.707-3.458 7.707-7.708s-3.457-7.707-7.707-7.707-7.708 3.457-7.708 7.707 3.458 7.708 7.708 7.708zm0-12.415c2.596 0 4.707 2.111 4.707 4.707s-2.111 4.708-4.707 4.708-4.708-2.112-4.708-4.708 2.113-4.707 4.708-4.707z"/><path d="m86.101 37.147c4.25 0 7.708-3.458 7.708-7.708s-3.458-7.707-7.708-7.707-7.707 3.457-7.707 7.707 3.457 7.708 7.707 7.708zm0-12.415c2.596 0 4.708 2.111 4.708 4.707s-2.112 4.708-4.708 4.708-4.707-2.112-4.707-4.708 2.111-4.707 4.707-4.707z"/><path d="m105.128 37.147c4.25 0 7.708-3.458 7.708-7.708s-3.458-7.707-7.708-7.707-7.708 3.457-7.708 7.707 3.458 7.708 7.708 7.708zm0-12.415c2.596 0 4.708 2.111 4.708 4.707s-2.112 4.708-4.708 4.708-4.708-2.112-4.708-4.708 2.112-4.707 4.708-4.707z"/><path d="m158.728 33.626h34.203c2.042 0 3.703-1.661 3.703-3.703v-1.028c0-2.042-1.661-3.704-3.703-3.704h-34.203c-2.042 0-3.703 1.662-3.703 3.704v1.028c-.001 2.042 1.661 3.703 3.703 3.703zm-.704-4.731c0-.382.322-.704.703-.704h34.203c.381 0 .703.322.703.704v1.028c0 .381-.322.703-.703.703h-34.203c-.381 0-.703-.322-.703-.703z"/><path d="m61.933 122.75h132.135c.828 0 1.5-.672 1.5-1.5v-68.558c0-.828-.672-1.5-1.5-1.5h-132.135c-.828 0-1.5.672-1.5 1.5v68.558c0 .828.671 1.5 1.5 1.5zm1.5-68.558h129.135v65.558h-129.135z"/><path d="m115.407 74.422c-.425-.967-1.381-1.592-2.438-1.592h-8.99c-.741 0-1.455.312-1.96.86l-10.508 11.434c-.932 1.014-.929 2.599.008 3.61l10.506 11.33c.502.542 1.214.853 1.952.853h8.978c1.059 0 2.017-.627 2.44-1.598s.231-2.099-.488-2.874l-8.827-9.521 8.85-9.631c.714-.777.902-1.904.477-2.871zm-11.182 23.603c0-.001 0 0 0 0 .001 0 .001 0 0 0zm-.566-12.901c-.932 1.014-.929 2.599.008 3.61l8.514 9.183h-8.056l-10.194-10.993 10.196-11.094h8.072z"/><path d="m136.959 60.442h-6.978c-1.24 0-2.306.843-2.591 2.052l-11.149 47.535c-.188.796-.006 1.621.502 2.264.509.643 1.27 1.011 2.089 1.011h6.979c1.24 0 2.306-.843 2.591-2.052l11.147-47.537c.188-.797.004-1.621-.504-2.263s-1.268-1.01-2.086-1.01zm-11.415 49.862h-6.285l10.99-46.861h6.283z"/><path d="m153.772 73.69c-.502-.547-1.217-.86-1.96-.86h-8.992c-1.057 0-2.013.625-2.438 1.592s-.236 2.094.478 2.87l8.854 9.632-8.829 9.521c-.72.776-.911 1.904-.488 2.875.424.971 1.382 1.598 2.44 1.598h8.979c.738 0 1.45-.311 1.951-.853l10.504-11.329c.937-1.01.94-2.596.009-3.611zm-2.104 24.227h-8.058l8.515-9.182c.938-1.011.941-2.597.009-3.611l-8.543-9.294h8.074l10.195 11.094z"/></g></g></svg>